<svg enable-background="new 0 0 3533.2 494" viewBox="0 0 3533.2 494" xmlns="http://www.w3.org/2000/svg"><g fill="#6b6be8"><path d="m7.8 97.4h123.1c59 0 95.7 10.7 116.5 27 31.5 24.4 45.8 61.6 45.8 102.8 0 29-8.1 51.4-18.8 68.2-12.7 19.9-31 32.6-48.8 40.2l77.9 138.4h-99.2l-98.3-181.8h15.8c24.4 0 45.3-2.1 58-10.2 11.7-7.6 21.4-25.4 21.4-46.3 0-19.9-9.7-35.6-22.4-43.8-10.7-6.6-25.9-10.1-39.2-10.1h-35.6v292.1h-96.2z"/><path d="m583 385.4c-13.7 31.5-33.6 56-57.5 72.3-23.4 16.8-51.4 25.4-80.4 25.4-80.9 0-149.6-65.6-149.6-149.6 0-78.9 62.1-151.6 148.1-151.6s149.1 68.2 149.1 154.2c0 11.2-1 15.8-2 22.4h-211.8c5.1 33.6 33.1 53.4 66.2 53.4 26 0 39.7-11.7 51.4-26.5zm-74.8-84c-3.6-16.8-20.4-48.3-64.1-48.3s-60.6 31.5-64.1 48.3z"/><path d="m746.7 270.9c-.5-6.1-1.5-21.4-26.5-21.4-17.8 0-23.9 11.2-23.9 18.8 0 15.3 20.9 23.9 43.3 30.5 47.8 13.2 98.7 27.5 98.7 88.5 0 59.5-52.4 96.2-115 96.2-42.7 0-107.4-19.3-115-93.6h84c3.6 26 28.5 26 32.1 26 14.2 0 29.5-8.1 29.5-21.9 0-21.9-20.9-24.4-74.8-45.3-36.6-11.7-67.2-35.6-67.2-73.8 0-56 50.9-93.1 109.4-93.1 37.1 0 101.3 14.8 108.4 89.1z"/><path d="m1123.9 473.9h-79.9v-30h-1c-17.3 36.1-51.9 39.2-73.3 39.2-17.3 0-58-4.1-82.9-35.6-22.4-28-25.4-48.3-25.4-87v-169h84.5v156.2c0 19.3 0 56.5 45.3 56.5 24.4 0 48.3-12.7 48.3-57.5v-155.2h84.5v282.4z"/><path d="m1164.6 191.5h78.9v30h1c6.6-11.7 24.9-39.7 77.9-39.7 24.9 0 59 8.7 81.4 50.4 17.3-27.5 46.3-50.4 89.6-50.4 19.8 0 51.4 4.6 74.3 28.5 26.5 28 30.5 46.8 30.5 109.4v154.2h-84.5v-150.1c0-22.9 0-62.6-43.3-62.6-46.8 0-46.8 42.7-46.8 58.5v154.2h-84.5v-153.7c0-15.3 0-59-42.2-59-47.8 0-47.8 45.8-47.8 62.6v150.1h-84.5z"/><path d="m1914.3 385.4c-13.7 31.5-33.6 56-57.5 72.3-23.4 16.8-51.4 25.4-80.4 25.4-80.9 0-149.6-65.6-149.6-149.6 0-78.9 62.1-151.6 148.1-151.6s149.1 68.1 149.1 154.1c0 11.2-1 15.8-2 22.4h-211.7c5.1 33.6 33.1 53.4 66.2 53.4 26 0 39.7-11.7 51.4-26.5h86.4zm-74.8-84c-3.6-16.8-20.4-48.3-64.1-48.3-43.8 0-60.6 31.5-64.1 48.3z"/></g><path d="m2555.3 473.9h-84.5v-30.5h-1c-14.2 27.5-49.4 40.2-82.4 40.2-89.6 0-142-70.2-142-151.1 0-92.6 66.7-150.6 142-150.6 46.3 0 72.3 22.4 82.4 39.7h1v-30h84.5zm-155.2-69.2c52.9 0 70.7-44.8 70.7-72.3 0-34.1-23.4-71.7-71.2-71.7-48.3 0-69.7 40.7-69.7 72.8 0 26.4 19.3 71.2 70.2 71.2z" fill="#2d1277"/><path d="m2591.1 97.4h84.5v116.5c30-32.1 70.2-32.1 81.9-32.1 59 0 138.9 42.2 138.9 149.1 0 101.8-70.7 152.7-142.5 152.7-39.7 0-70.2-19.3-80.9-39.7h-1v30h-80.9zm150.1 307.3c43.3 0 70.7-35.1 70.7-72.3 0-36.6-27.5-71.7-69.2-71.7-44.8 0-70.2 36.1-70.2 71.2 0 39.2 26.5 72.8 68.7 72.8z" fill="#2d1277"/><path d="m2922.9 97.4h84.5v116.5c30-32.1 70.2-32.1 81.9-32.1 59 0 138.9 42.2 138.9 149.1 0 101.8-70.7 152.7-142.5 152.7-39.7 0-70.2-19.3-80.9-39.7h-1v30h-80.9zm150.1 307.3c43.2 0 70.7-35.1 70.7-72.3 0-36.6-27.5-71.7-69.2-71.7-44.8 0-70.2 36.1-70.2 71.2 0 39.2 26.4 72.8 68.7 72.8z" fill="#2d1277"/><path d="m3333.7 161.5h-84.5v-64.1h84.5zm0 312.4h-84.5v-282.4h84.5z" fill="#2d1277"/><path d="m3485.9 191.5h40.7v64.1h-40.7v218.3h-84.5v-218.3h-41.7v-64.1h41.7v-94.1h84.5z" fill="#2d1277"/><path d="m2171.6 336.5c17.7-7.6 35.9-20.2 48.5-39.9 10.6-16.7 18.7-38.9 18.7-67.7 0-38.7-12.7-73.8-40.6-98-1.1-1.4-2.5-2.9-4.3-4.4-144.2-120.9-328-121.3-328-121.3 14.1 31.7 79.8 70.4 104.1 83.9 5.9 3.2 12.3 5.3 18.9 6 12.4 1.4 34.1 3.7 49.6 5h-77.1c-88.5-9.7-201.4 8.6-201.4 8.6 84.1 87.8 189.4 36.8 195.3 41.6h.2v323.6h95.5v-289.9h35.4c13.1 0 28.3 3.5 38.9 10.1 12.7 8.1 22.2 23.7 22.2 43.5 0 20.7-9.6 38.4-21.2 45.9-12.6 8.1-33.3 10.1-57.6 10.1h-15.7l97.5 180.3h98.5z" fill="#2d1277"/></svg>