<?xml version="1.0" encoding="utf-8"?>
<!-- Generator: Adobe Illustrator 21.1.0, SVG Export Plug-In . SVG Version: 6.00 Build 0)  -->
<svg version="1.1" id="Layer_1" xmlns="http://www.w3.org/2000/svg" xmlns:xlink="http://www.w3.org/1999/xlink" x="0px" y="0px"
	 viewBox="0 0 700.6 100.4" style="enable-background:new 0 0 700.6 100.4;" xml:space="preserve">
<style type="text/css">
	.st0{fill:#2D1277;}
	.st1{fill:#6B6BE8;}
	.st2{fill:#375C7C;}
	.st3{fill:#FFFFFF;}
	.st4{fill:#6682FD;}
	.st5{fill:#43DDBF;}
	.st6{fill:#E481E1;}
</style>
<g>
	<path class="st1" d="M0.4,20h24.5c11.7,0,19,2.1,23.2,5.4c6.3,4.9,9.1,12.2,9.1,20.4c0,5.8-1.6,10.2-3.7,13.6c-2.5,4-6.2,6.5-9.7,8
		l15.5,27.5H39.5L19.9,58.7h3.1c4.9,0,9-0.4,11.5-2c2.3-1.5,4.3-5.1,4.3-9.2c0-4-1.9-7.1-4.5-8.7c-2.1-1.3-5.2-2-7.8-2h-7.1v58.1
		H0.4V20z"/>
	<path class="st1" d="M114.8,77.2c-2.7,6.3-6.7,11.1-11.4,14.4c-4.7,3.3-10.2,5.1-16,5.1c-16.1,0-29.8-13.1-29.8-29.8
		c0-15.7,12.3-30.2,29.4-30.2c17.1,0,29.7,13.6,29.7,30.7c0,2.2-0.2,3.1-0.4,4.5H74.2c1,6.7,6.6,10.6,13.2,10.6
		c5.2,0,7.9-2.3,10.2-5.3H114.8z M99.9,60.5c-0.7-3.3-4-9.6-12.8-9.6s-12,6.3-12.8,9.6H99.9z"/>
	<path class="st1" d="M147.4,54.5c-0.1-1.2-0.3-4.3-5.3-4.3c-3.5,0-4.8,2.2-4.8,3.7c0,3,4.1,4.8,8.6,6.1c9.5,2.6,19.6,5.5,19.6,17.6
		c0,11.8-10.4,19.1-22.9,19.1c-8.5,0-21.4-3.8-22.9-18.6h16.7c0.7,5.2,5.7,5.2,6.4,5.2c2.8,0,5.9-1.6,5.9-4.4c0-4.4-4.1-4.9-14.9-9
		c-7.3-2.3-13.4-7.1-13.4-14.7c0-11.1,10.1-18.5,21.8-18.5c7.4,0,20.1,2.9,21.6,17.7H147.4z"/>
	<path class="st1" d="M222.4,94.9h-15.9v-6h-0.2c-3.4,7.2-10.3,7.8-14.6,7.8c-3.4,0-11.5-0.8-16.5-7.1c-4.5-5.6-5.1-9.6-5.1-17.3
		V38.7H187v31.1c0,3.8,0,11.2,9,11.2c4.9,0,9.6-2.5,9.6-11.4V38.7h16.8V94.9z"/>
	<path class="st1" d="M230.5,38.7h15.7v6h0.2c1.3-2.3,5-7.9,15.5-7.9c5,0,11.7,1.7,16.2,10c3.4-5.5,9.2-10,17.8-10
		c3.9,0,10.2,0.9,14.8,5.7c5.3,5.6,6.1,9.3,6.1,21.8v30.7h-16.8V65c0-4.6,0-12.4-8.6-12.4c-9.3,0-9.3,8.5-9.3,11.6v30.7h-16.8V64.3
		c0-3,0-11.7-8.4-11.7c-9.5,0-9.5,9.1-9.5,12.4v29.9h-16.8V38.7z"/>
	<path class="st1" d="M379.6,77.2c-2.7,6.3-6.7,11.1-11.4,14.4c-4.7,3.3-10.2,5.1-16,5.1c-16.1,0-29.8-13.1-29.8-29.8
		c0-15.7,12.3-30.2,29.4-30.2s29.7,13.6,29.7,30.7c0,2.2-0.2,3.1-0.4,4.5H339c1,6.7,6.6,10.6,13.2,10.6c5.2,0,7.9-2.3,10.2-5.3
		H379.6z M364.7,60.5c-0.7-3.3-4-9.6-12.8-9.6c-8.7,0-12,6.3-12.8,9.6H364.7z"/>
	<path class="st3" d="M507.1,94.9h-16.8v-6.1h-0.2c-2.8,5.5-9.8,8-16.4,8c-17.8,0-28.2-14-28.2-30.1c0-18.4,13.3-30,28.2-30
		c9.2,0,14.4,4.5,16.4,7.9h0.2v-6h16.8V94.9z M476.2,81.1c10.5,0,14.1-8.9,14.1-14.4c0-6.8-4.7-14.3-14.2-14.3
		c-9.6,0-13.9,8.1-13.9,14.5C462.2,72.2,466.1,81.1,476.2,81.1z"/>
	<path class="st3" d="M514.2,20H531v23.2c6-6.4,14-6.4,16.3-6.4c11.7,0,27.6,8.4,27.6,29.7c0,20.2-14.1,30.4-28.3,30.4
		c-7.9,0-14-3.8-16.1-7.9h-0.2v6h-16.1V20z M544.1,81.1c8.6,0,14.1-7,14.1-14.4c0-7.3-5.5-14.3-13.8-14.3c-8.9,0-14,7.2-14,14.2
		C530.4,74.4,535.7,81.1,544.1,81.1z"/>
	<path class="st3" d="M580.2,20H597v23.2c6-6.4,14-6.4,16.3-6.4c11.7,0,27.6,8.4,27.6,29.7c0,20.2-14.1,30.4-28.3,30.4
		c-7.9,0-14-3.8-16.1-7.9h-0.2v6h-16.1V20z M610,81.1c8.6,0,14.1-7,14.1-14.4c0-7.3-5.5-14.3-13.8-14.3c-8.9,0-14,7.2-14,14.2
		C596.4,74.4,601.6,81.1,610,81.1z"/>
	<path class="st3" d="M661.9,32.7h-16.8V20h16.8V32.7z M661.9,94.9h-16.8V38.7h16.8V94.9z"/>
	<path class="st3" d="M692.2,38.7h8.1v12.8h-8.1v43.4h-16.8V51.4h-8.3V38.7h8.3V20h16.8V38.7z"/>
	<path class="st3" d="M430.8,67.5c3.5-1.5,7.1-4,9.6-7.9c2.1-3.3,3.7-7.7,3.7-13.5c0-7.7-2.5-14.7-8.1-19.5
		c-0.2-0.3-0.5-0.6-0.9-0.9C406.5,1.7,370,1.6,370,1.6c2.8,6.3,15.9,14,20.7,16.7c1.2,0.6,2.4,1.1,3.8,1.2c2.5,0.3,6.8,0.7,9.9,1
		H389c-17.6-1.9-40.1,1.7-40.1,1.7c16.7,17.5,37.7,7.3,38.8,8.3l0,0v64.4h19V37.2h7c2.6,0,5.6,0.7,7.7,2c2.5,1.6,4.4,4.7,4.4,8.6
		c0,4.1-1.9,7.6-4.2,9.1c-2.5,1.6-6.6,2-11.5,2h-3.1l19.4,35.9h19.6L430.8,67.5z"/>
</g>
</svg>
